<svg width="135" height="22" viewBox="0 0 135 22" fill="none" xmlns="http://www.w3.org/2000/svg"><path d="M23.411 4.488V7.04h-.804c-2.504 0-4.114 1.761-4.114 4.403v5.987h-2.772V4.664h2.772v3.258c.448-1.937 1.7-3.522 4.114-3.522.268 0 .536 0 .804.088zM38.62 4.657L33.2 17.422 31.156 22H28.49l2.133-4.754-5.332-12.59h2.755l3.821 9.42 3.91-9.507h2.843v.088zM54.513 11c0 4.4-3.198 6.6-6.218 6.6-2.309 0-3.996-1.232-4.44-2.288h-.09V22h-2.752V4.664h2.753v2.024h.089c.444-.968 2.131-2.288 4.44-2.288 3.109 0 6.218 2.2 6.218 6.6zm-2.665 0c0-2.728-2.043-4.136-4.085-4.136-2.043 0-4.086 1.408-4.086 4.136s2.043 4.136 4.086 4.136c2.131 0 4.085-1.408 4.085-4.136zM60.829 6.8v6.941c0 .703.355 1.318 1.418 1.318.266 0 .709-.088 1.152-.264v2.109c-.443.351-1.33.527-2.038.527-1.95 0-3.367-.966-3.367-3.25V6.8H56.22V4.605h1.773V1.354h2.746v3.25h2.57v2.197h-2.481zM65.62 11c0-4.312 3.355-6.6 6.62-6.6 3.355 0 6.71 2.288 6.71 6.6 0 4.312-3.355 6.6-6.71 6.6-3.265 0-6.62-2.288-6.62-6.6zm10.593 0c0-2.64-1.854-4.136-3.972-4.136-2.119 0-3.972 1.496-3.972 4.136s1.941 4.136 3.972 4.136c2.03 0 3.972-1.496 3.972-4.136zM89.374 4.488V7.04h-.805c-2.504 0-4.114 1.761-4.114 4.403v5.987h-2.771V4.664h2.772v3.258c.447-1.937 1.698-3.522 4.113-3.522.268 0 .536 0 .805.088zM119.449 9.944v7.486h-2.748v-7.045c0-2.202-1.241-3.435-3.103-3.435s-3.192 1.233-3.192 3.435v7.045h-2.748V4.748h2.748v1.938c.71-1.145 2.039-2.114 4.078-2.114 2.749-.088 4.965 1.585 4.965 5.372zM127.246 12.237l-1.784 1.937v3.257h-2.766V0h2.766v10.652l5.442-5.986h3.301l-5.264 5.722 5.888 7.043h-3.122l-4.461-5.194zM104.924 10.899V4.327h-2.753v2.037h-.089c-.444-1.063-2.132-2.302-4.44-2.302-3.02 0-6.218 2.213-6.218 6.64s3.197 6.64 6.217 6.729c.321 0 .63-.026.925-.073.556-.341 1.17-.886 1.903-1.713-.437-.066-.79-.113-1.09-.154-1.055-.142-1.489-.201-2.758-.653-.646-.23-1.788-1.252-2.13-2.212-.255-.545-.403-1.186-.403-1.924 0-2.745 2.043-4.161 4.086-4.161s4.086 1.416 4.086 4.16l-.001.088c1.002.034 1.939.075 2.665.11z" fill="#0587FF"/><path d="M100.686 18.445l-.538-.522 2.332-2.526-2.512-2.352.539-.522 3.05 2.874-2.871 3.048z" fill="#0587FF" stroke="#0587FF" stroke-width="1.196" stroke-miterlimit="10"/><path d="M5.542 15.03c-.626-.238-1.273-.595-1.735-1.125a4.457 4.457 0 01-1.062-2.904c0-2.64 1.86-4.137 3.984-4.137 1.063 0 2.125.352 2.834 1.144.21.21.38.427.516.648l.498-.188c.69-.26 1.379-.521 2.069-.787C11.446 5.524 9.088 4.4 6.729 4.4 3.365 4.4 0 6.688 0 11c0 4.243 3.256 6.527 6.565 6.6.58-.49 1.24-1.155 1.732-1.652l.341-.344c-1.14 0-2.28-.191-3.096-.574z" fill="#0587FF"/><path d="M8.75 18.784l-.539-.522 2.333-2.526-2.512-2.352.538-.523 3.05 2.875-2.87 3.048z" fill="#0587FF" stroke="#0587FF" stroke-width="1.196" stroke-miterlimit="10"/></svg>